<?xml version="1.0" encoding="UTF-8"?>
<svg width="64" height="64" viewBox="0 0 64 64" fill="none" xmlns="http://www.w3.org/2000/svg">
  <!-- Shield outline -->
  <path d="M32 4L16 12V28C16 42 24 52 32 60C40 52 48 42 48 28V12L32 4Z" 
        fill="#2E86C1" stroke="#1B4F72" stroke-width="2"/>
  
  <!-- Inner shield design -->
  <path d="M32 8L20 14V26C20 36 26 44 32 50C38 44 44 36 44 26V14L32 8Z" 
        fill="#3498DB"/>
        
  <!-- Central icon - simplified lock/key -->
  <circle cx="32" cy="26" r="4" fill="white"/>
  <rect x="29" y="26" width="6" height="8" rx="1" fill="white"/>
  
  <!-- Small decorative elements -->
  <circle cx="26" cy="20" r="1.5" fill="#E8F6F3" opacity="0.8"/>
  <circle cx="38" cy="22" r="1" fill="#E8F6F3" opacity="0.6"/>
  <circle cx="24" cy="32" r="1" fill="#E8F6F3" opacity="0.7"/>
  <circle cx="40" cy="30" r="1.5" fill="#E8F6F3" opacity="0.5"/>
</svg>
